<?xml version="1.0" encoding="UTF-8" standalone="no"?>
<!-- Created with Inkscape (http://www.inkscape.org/) -->

<svg
   width="175.8333mm"
   height="182.72859mm"
   viewBox="0 0 175.8333 182.72859"
   version="1.1"
   id="svg1"
   xml:space="preserve"
   inkscape:version="1.4.4 (dcaf3e7d9e, 2026-05-05)"
   sodipodi:docname="vc-phoenix.svg"
   inkscape:export-filename="vc-phoenix.pdf"
   inkscape:export-xdpi="96"
   inkscape:export-ydpi="96"
   xmlns:inkscape="http://www.inkscape.org/namespaces/inkscape"
   xmlns:sodipodi="http://sodipodi.sourceforge.net/DTD/sodipodi-0.dtd"
   xmlns="http://www.w3.org/2000/svg"
   xmlns:svg="http://www.w3.org/2000/svg"><sodipodi:namedview
     id="namedview1"
     pagecolor="#505050"
     bordercolor="#eeeeee"
     borderopacity="1"
     inkscape:showpageshadow="0"
     inkscape:pageopacity="0"
     inkscape:pagecheckerboard="0"
     inkscape:deskcolor="#505050"
     inkscape:document-units="mm"
     inkscape:zoom="0.67752826"
     inkscape:cx="286.33492"
     inkscape:cy="374.15414"
     inkscape:window-width="1369"
     inkscape:window-height="734"
     inkscape:window-x="0"
     inkscape:window-y="0"
     inkscape:window-maximized="1"
     inkscape:current-layer="layer3" /><defs
     id="defs1" /><g
     inkscape:groupmode="layer"
     id="layer3"
     inkscape:label="logo"
     transform="translate(-11.127598,-36.044412)"><ellipse
       style="fill:#fcfafa;fill-opacity:1;stroke-width:0.270759"
       id="path1"
       cx="99.044098"
       cy="130.85391"
       rx="87.916496"
       ry="87.919502" /><path
       id="path2"
       style="fill:#100c0c;fill-opacity:1;stroke-width:0.19312"
       inkscape:label="volleyball"
       d="m 99.478766,-30.385291 c -12.0775,-0.06234 -24.000488,2.348178 -35.141862,7.130724 -9.23791,3.965465 -17.721503,9.470362 -25.141263,16.3138839 -1.174333,1.0831315 -4.082178,4.0159064 -5.168708,5.2130173 -3.966059,4.369698 -7.37123,8.9346729 -10.328932,13.8470898 -6.145433,10.206882 -10.090223,21.376248 -11.757132,33.289223 -0.363477,2.597674 -0.585424,4.996879 -0.75387,8.149856 -0.07988,1.494713 -0.07898,6.388545 0.0014,7.894374 0.07962,1.491598 0.248431,3.869152 0.310171,4.368732 0.02605,0.210772 0.06135,0.544175 0.07854,0.740896 0.01719,0.19672 0.06519,0.64509 0.106583,0.996377 0.91847,7.794853 2.745306,15.069609 5.607318,22.329073 3.635736,9.222006 9.017689,18.045535 15.567698,25.522585 2.327338,2.65674 5.631131,5.96008 8.307036,8.30594 6.596741,5.7831 14.20864,10.63352 22.326179,14.22662 10.757063,4.76145 22.58484,7.34923 34.285599,7.50137 5.472737,0.0712 10.631197,-0.32786 15.967577,-1.23519 4.52654,-0.76963 8.4388,-1.74081 12.82517,-3.18384 0.56544,-0.18601 1.12936,-0.37803 1.69147,-0.57603 -0.003,-0.002 -0.005,-0.004 -0.008,-0.006 -0.78743,-0.58258 -1.15671,-0.91858 -1.49267,-1.35824 -0.28393,-0.37158 -0.48672,-0.68463 -0.63002,-0.99468 -1.78176,0.5999 -3.02524,0.97371 -4.79846,1.45634 -2.58867,0.70459 -6.12661,1.48425 -7.21565,1.59018 -0.46398,0.0451 -2.46981,0.0573 -2.87586,0.0174 -1.87437,-0.18411 -3.39564,-0.46599 -5.74833,-1.06504 -2.63553,-0.67105 -5.30191,-1.53812 -7.976507,-2.58854 -0.136737,1.08748 -0.127885,2.15282 0.04052,3.36637 1.210199,0.45269 2.417132,0.86818 3.618357,1.24497 0.4637,0.14545 0.86132,0.28088 0.88361,0.30099 0.0223,0.0201 -0.27452,0.0517 -0.65956,0.0702 -0.38504,0.0185 -1.552947,0.0291 -2.595339,0.0236 -0.377968,-0.002 -0.685186,-0.004 -0.946279,-0.005 0.08606,0.38517 0.185258,0.78782 0.297796,1.21164 0.124309,0.46815 0.13469,0.78961 0.03493,1.07761 -0.101011,0.29161 -0.223442,0.29044 -0.483219,-0.005 -0.44718,-0.50802 -1.04813,-1.51439 -1.328404,-2.22448 -0.01166,-0.0296 -0.02322,-0.059 -0.03463,-0.0883 -0.342393,-0.0126 -0.742184,-0.031 -1.351557,-0.059 -9.433719,-0.43357 -18.96691,-2.52717 -27.796373,-6.10451 -9.049559,-3.66653 -17.354795,-8.82964 -24.653952,-15.32659 -2.229129,-1.98414 -4.980488,-4.73591 -6.925741,-6.92684 -9.677181,-10.89934 -16.311178,-23.859414 -19.47257,-38.041174 -0.355232,-1.593541 -0.60792,-2.905549 -0.567349,-2.94612 0.08143,-0.08143 2.922843,-0.622157 5.349441,-1.027015 -1.429463,-0.671285 -2.95116,-1.589949 -4.056267,-2.46799 -0.477817,0.09416 -0.928655,0.187331 -1.34477,0.278335 -0.245953,0.0538 -0.459679,0.07758 -0.474936,0.05289 -0.05302,-0.08579 -0.179062,-0.959681 -0.311867,-2.075786 -0.03206,-0.02884 -0.06343,-0.05734 -0.09451,-0.08583 -0.252925,-0.231878 -0.669961,-0.608834 -0.92672,-0.8377 -0.571598,-0.509501 -1.315953,-1.363627 -1.694359,-1.944153 -0.214883,-0.329659 -0.287936,-0.491161 -0.30568,-0.675828 -0.02103,-0.218845 -0.0099,-0.251423 0.11277,-0.331827 0.204008,-0.133671 0.382322,-0.05786 1.459938,0.620641 0.4477,0.281887 0.826415,0.515347 1.181002,0.725626 -0.01902,-0.206302 -0.03684,-0.408269 -0.05309,-0.603075 -0.675504,-8.097124 -0.211495,-16.037035 1.402053,-23.989701 0.469909,-2.316029 0.394249,-2.103818 0.951868,-2.667685 2.425797,-2.452982 6.514357,-4.470605 11.668214,-5.758111 4.870019,-1.216601 10.356637,-1.786198 16.376357,-1.700049 2.802963,0.04011 4.759759,0.149853 7.50167,0.420746 15.161659,1.497936 29.756904,6.753182 38.133389,13.730527 0.353264,0.294258 0.888161,0.771881 1.338882,1.18759 0.314371,-1.312559 0.497695,-2.568615 0.490106,-3.507979 -6.82e-4,-0.08439 -2.26e-4,-0.157823 0.0017,-0.222848 -3.379048,-2.788364 -7.853043,-5.424598 -12.906999,-7.593485 -8.487986,-3.642587 -18.422828,-6.037977 -28.478289,-6.866361 -4.727379,-0.389447 -10.452734,-0.368839 -14.639082,0.05259 -7.369497,0.741877 -13.368458,2.456798 -17.847569,5.102043 -0.373583,0.220628 -0.68871,0.391616 -0.700278,0.380029 -0.04858,-0.04858 0.784588,-2.611851 1.442172,-4.436894 3.3928,-9.416301 8.400048,-18.131068 14.826103,-25.8036183 1.727362,-2.06242461 2.670773,-3.09325549 2.969072,-3.2444142 0.133003,-0.0673988 0.503449,-0.35506809 0.823229,-0.63920136 0.70773,-0.62883854 1.388992,-1.08997964 2.268396,-1.53548374 2.107615,-1.067711 5.018158,-1.8284194 8.482779,-2.2171 1.773793,-0.1989945 2.547784,-0.2400093 5.075099,-0.2690526 2.978617,-0.034229 4.92944,0.051874 7.843776,0.346397 C 75.648745,-3.0986714 90.776052,2.1705109 99.682652,8.6625412 99.643679,8.4551827 99.598836,8.2429209 99.544831,8.0061754 99.487137,7.7532483 99.392097,7.3278692 99.33366,7.0608927 99.172448,6.3243667 98.843102,4.9598075 98.667712,4.3016939 98.65752,4.2634523 98.647559,4.2261802 98.637873,4.1898215 87.419603,-2.7957225 70.001474,-7.8146564 55.035485,-8.0328663 c -3.723737,-0.054294 -6.62221,0.1698431 -9.928544,0.7678404 -0.910709,0.1647138 -1.18227,0.185872 -1.027913,0.080039 0.02851,-0.01955 0.384225,-0.3125489 0.790495,-0.6511786 10.337084,-8.6160585 22.568148,-14.6200975 35.790744,-17.5691335 2.903786,-0.647631 5.529868,-1.087241 8.890752,-1.488179 2.342961,-0.279506 5.390255,-0.473048 8.178897,-0.519445 l 1.945251,-0.03233 0.107382,0.150793 c 0.160344,0.225184 0.986571,1.83829 1.340981,2.618185 0.94895,2.088212 1.83653,4.72061 2.44873,7.262059 0.54019,2.24252 0.96516,4.716662 1.2287,7.153476 0.19049,1.7613298 0.19083,1.7646689 0.28911,3.3212587 0.0256,0.4051769 0.0472,1.0599553 0.0638,1.8294854 0.25283,1.2207932 0.29543,1.3411609 0.5956,2.1815718 0.12044,0.3372354 0.24796,0.7108778 0.28332,0.8303146 0.0756,0.2552522 0.16606,0.2910624 0.12914,0.051096 -0.0141,-0.091334 -0.0401,-0.9478338 -0.0579,-1.9033345 -0.0178,-0.9555006 -0.0396,-1.829246 -0.0485,-1.9416591 -0.009,-0.1124111 -0.0314,-0.5377883 -0.0499,-0.9452807 -0.0617,-1.3576436 -0.35809,-4.5794932 -0.5416,-5.8879472 -0.0265,-0.189204 -0.0704,-0.5456 -0.0975,-0.791992 -0.10063,-0.916004 -0.40761,-2.882369 -0.60836,-3.896989 -0.79196,-4.002607 -1.8012,-7.374028 -2.81459,-9.401716 -0.64746,-1.295504 -1.04816,-1.885709 -2.242446,-3.303295 -0.08124,-0.09642 -0.155098,-0.184724 -0.222348,-0.266059 z m 3.153894,0.07235 c 0.65739,0.618912 1.30931,1.268142 1.72989,1.737674 0.26695,0.298013 0.71203,0.847033 1.13639,1.392173 1.9952,0.143674 4.00264,0.366221 6.0118,0.665049 -0.0736,-0.225357 -0.27244,-0.869767 -0.45088,-1.461432 -0.21229,-0.703883 -0.3793,-1.235275 -0.52234,-1.65574 -1.29269,-0.169987 -2.59127,-0.311278 -3.8948,-0.42344 -1.33737,-0.115074 -2.67428,-0.199836 -4.01006,-0.254284 z m 12.8116,1.465526 c 0.34308,0.526216 0.71783,1.09422 0.99817,1.51143 0.50579,0.752731 0.91596,1.387263 1.27371,1.981879 5.40876,1.224686 10.75225,2.986585 15.82518,5.234274 l 0.93051,0.412262 0.14381,0.290809 c 1.51573,3.065076 3.01002,7.214438 3.98551,11.0670343 0.62071,2.4514219 1.25255,5.5944869 1.45963,7.260761 0.0314,0.25292509 0.0895,0.65531139 0.12894,0.8941851 0.0789,0.47787875 0.11817,0.80149342 0.30369,2.5037168 1.83797,16.8644778 -1.29705,36.2560058 -8.63657,53.4211558 -3.54532,8.291531 -7.90117,15.725462 -12.96119,22.130874 0.18269,-0.01355 0.34658,-0.03387 0.44649,-0.05988 0.41298,-0.107505 0.93714,-0.367332 1.4287,-0.708162 0.76373,-0.529539 0.81044,-0.533243 0.85706,-0.06756 0.0633,0.632683 -0.18462,1.230336 -0.71704,1.728392 -0.17908,0.167519 -0.31602,0.314972 -0.30728,0.330329 8e-5,1.13e-4 2.1e-4,2.03e-4 3e-4,2.99e-4 0.0392,0.0392 0.60041,-0.173848 1.15236,-0.437512 0.3501,-0.167235 0.62659,-0.320945 0.85906,-0.486911 0.44191,-0.586745 0.87952,-1.18311 1.31263,-1.789068 0.21389,-0.514102 0.27969,-0.956651 0.19012,-1.30086 -0.12745,-0.489786 -0.12667,-0.504342 0.0314,-0.564454 0.22256,-0.08461 0.54393,0.03247 0.87303,0.299492 0.59674,-0.872742 1.18426,-1.763957 1.76193,-2.673073 3.22703,-5.078638 6.23805,-10.93987 8.63127,-16.801593 4.51436,-11.056993 7.35471,-22.797034 8.34656,-34.499067 0.25858,-3.050752 0.35524,-5.484146 0.35408,-8.9163 -0.001,-3.3316267 -0.0742,-5.1322523 -0.32963,-8.1243072 -0.63365,-7.4226726 -2.19059,-14.4142668 -4.54358,-20.4036798 -0.17465,-0.444564 -0.30467,-0.821242 -0.28891,-0.837001 0.065,-0.06498 3.47032,1.888113 5.34335,3.064578 9.22383,5.7935408 17.41384,13.48710827 23.75468,22.314901 0.51886,0.7223587 0.56908,0.8122097 0.57134,1.0219261 0.003,0.275806 0.0383,0.433778 0.50817,2.2737849 0.20093,0.786882 0.40977,1.637634 0.46416,1.890561 0.0544,0.252927 0.16934,0.781774 0.25538,1.175215 0.20511,0.937952 0.50634,2.580432 0.7872,4.292087 0.28624,1.744432 0.44109,2.921526 0.63851,4.854145 1.54517,15.126694 -0.9365,30.780508 -7.16965,45.225492 -3.50142,8.114336 -8.12601,15.70424 -13.72254,22.529964 0.62844,0.182395 1.4253,0.391994 1.96351,0.514057 0.62767,0.142353 1.01692,0.232675 1.3782,0.325838 3.20343,-4.026509 6.09132,-8.308797 8.6223,-12.798219 1.71136,-3.035587 3.51031,-6.689168 4.86822,-9.887129 4.12205,-9.707728 6.62566,-20.003057 7.38071,-30.351187 0.40572,-5.560341 0.32032,-11.037674 -0.25608,-16.427451 -0.17174,-1.605874 -0.6213,-4.846164 -0.79398,-5.722784 -0.0267,-0.135752 -0.0216,-0.14452 0.0455,-0.07664 0.17739,0.179499 1.88829,3.543155 2.68994,5.288464 2.63928,5.746076 4.59485,11.674216 5.95012,18.036985 0.24631,1.156392 0.63925,3.270403 0.74549,4.011057 0.0584,0.407493 0.16154,1.120286 0.22914,1.583985 0.10494,0.719868 0.21058,1.52869 0.31037,2.375976 0.0261,0.221853 0.20828,2.057519 0.25348,2.554814 0.0153,0.168618 0.0614,0.846921 0.10229,1.50734 0.91001,14.681929 -1.87915,29.013374 -8.22281,42.25103 -1.09413,2.283197 -2.31456,4.548867 -3.6401,6.76407 0.37685,0.35687 0.75438,0.72968 1.13629,1.12062 0.30978,0.31711 0.66701,0.70098 0.95925,1.02812 7.42652,-12.184655 11.85731,-26.131915 12.70551,-40.714652 0.24002,-4.126521 0.19046,-8.060818 -0.15529,-12.314202 -1.57721,-19.403104 -9.74906,-38.009905 -22.99,-52.3471386 C 150.81992,-15.994961 133.85967,-25.350672 115.44426,-28.847412 Z M 43.896499,66.975067 c -1.981259,0.02375 -4.119637,0.04471 -4.751954,0.04651 -0.688344,0.002 -1.252181,0.02728 -1.405147,0.06317 -0.140514,0.03297 -0.749838,0.0853 -1.354052,0.116264 -0.9504,0.0487 -2.201075,0.134687 -3.511273,0.238915 0.838453,0.81178 2.166109,1.907877 3.485924,2.896121 l 0.575831,-0.03114 0.03673,0.325938 c 0.0061,0.05406 0.01315,0.111321 0.02096,0.171552 0.425526,0.307764 0.841688,0.597369 1.231301,0.855164 0.632284,0.418363 1.572949,0.912853 2.332464,1.233895 -0.05372,-0.270135 -0.10542,-0.540281 -0.155085,-0.810555 -0.220011,-1.197313 -0.316133,-1.852764 -0.277337,-1.89156 0.05213,-0.05213 3.016396,-0.12353 5.176792,-0.124746 0.17274,-9.7e-5 0.345047,6.8e-5 0.516951,5.98e-4 -1.3e-4,-0.0045 -2.17e-4,-0.0091 -3e-4,-0.01357 -0.0052,-0.280737 0.0073,-0.319011 0.134327,-0.414259 0.107631,-0.08068 0.213918,-0.104275 0.459866,-0.102293 0.430273,0.0035 0.815655,0.147852 1.380797,0.550184 7.024909,0.121925 13.231026,0.775991 17.751665,1.833977 0.309496,-0.13718 0.562656,-0.283023 0.731714,-0.427333 0.171277,-0.146203 0.174517,-0.155224 0.07664,-0.21167 -0.254606,-0.146841 -1.047475,-1.032991 -1.047475,-1.170724 0,-0.153948 0.08598,-0.159711 0.446395,-0.02984 0.467796,0.168564 1.359783,0.340609 1.766015,0.340609 0.625733,0 1.447448,-0.215547 2.160115,-0.55687 -4.003177,-1.400049 -9.837142,-2.349051 -16.993304,-2.736445 -2.953332,-0.159877 -5.069593,-0.196471 -8.788558,-0.151892 z m -11.96132,0.5418 c -0.92744,0.07828 -1.856051,0.163345 -2.703312,0.248596 -0.997284,0.100346 -0.968465,0.09447 -2.278775,0.254383 0.01856,0.01495 0.03728,0.02999 0.05609,0.04511 1.451695,1.16669 2.287494,1.697316 4.107262,2.607407 0.03226,0.01613 0.06497,0.03236 0.0982,0.0488 0.6087,-0.05364 1.338207,-0.113682 2.067803,-0.170654 -0.55406,-0.815505 -0.998645,-1.720128 -1.223415,-2.528367 -0.04249,-0.152772 -0.08649,-0.334395 -0.12385,-0.505275 z M 23.39781,68.48121 c -0.538156,0.07684 -1.079886,0.157409 -1.618813,0.240611 0.204075,0.07211 0.405781,0.140858 0.605969,0.206481 1.664121,0.545512 2.260322,0.730506 2.282467,0.708362 0.01261,-0.0126 -0.237161,-0.241075 -0.554974,-0.507669 -0.238321,-0.199915 -0.47735,-0.416893 -0.714649,-0.647785 z m 18.084189,12.465195 c -0.03792,6e-5 -0.09934,0.0065 -0.19141,0.01796 -0.484285,0.06041 -1.111472,0.08357 -1.80803,0.07495 0.078,0.236668 0.157472,0.47351 0.238416,0.710557 0.137822,-0.05054 0.289909,-0.103182 0.457472,-0.158677 0.740581,-0.245272 1.225878,-0.458978 1.330297,-0.585711 0.0343,-0.04163 0.03645,-0.05918 -0.02674,-0.05908 z m -1.105056,2.642635 c 3.834551,10.313288 10.373465,20.87956 18.796543,30.23832 2.683399,2.98148 5.985396,6.25565 8.995139,8.91949 8.529233,7.54898 18.061918,13.56035 27.47323,17.37423 -0.07987,-0.40651 -0.140486,-0.82363 -0.187021,-1.27272 -0.05737,-0.55361 -0.139014,-1.25948 -0.181531,-1.56861 -0.03596,-0.26144 -0.05904,-0.49589 -0.06776,-0.73092 -7.151121,-3.08459 -14.3145,-7.45085 -21.05905,-12.8565 0.0096,0.39217 0.08951,0.54999 0.34001,0.70846 0.123415,0.0781 0.259613,0.21002 0.302686,0.29331 0.07062,0.13656 0.0704,0.1636 -0.0023,0.27454 -0.106154,0.16201 -0.282871,0.20082 -0.578625,0.12714 -0.309365,-0.0771 -0.487138,-0.18265 -0.812351,-0.48222 -0.315147,-0.2903 -0.446521,-0.57364 -0.529226,-1.14178 -0.03561,-0.24464 -0.03313,-0.52302 0.004,-0.81854 -1.016575,-0.84129 -2.022813,-1.7062 -3.017275,-2.59393 C 58.291556,109.7383 49.11624,97.038855 44.012262,84.292912 c -0.06962,-0.173856 -0.138333,-0.347247 -0.20618,-0.520143 -0.146142,0.0017 -0.310081,0.0026 -0.497191,0.003 -1.140117,0.0023 -2.1448,-0.06425 -2.931948,-0.186722 z m 68.719497,4.471723 c -0.37927,0.316983 -0.7589,0.626551 -1.13899,0.928615 0.0423,0.231274 0.0643,0.463078 0.0626,0.688103 -0.004,0.484314 -0.19735,0.874725 -0.43372,0.874725 -0.15016,0 -0.19047,-0.0555 -0.39889,-0.549685 -0.0414,-0.09816 -0.0921,-0.20457 -0.14311,-0.302485 -0.14471,0.110273 -0.28947,0.219503 -0.43432,0.327635 0.1453,0.301383 0.30677,0.587538 0.42574,0.726524 0.28914,0.337803 0.52602,0.436745 1.03769,0.433421 0.27046,-0.0017 0.52657,-0.03545 0.67882,-0.08922 0.13447,-0.04749 0.31267,-0.08633 0.396,-0.08633 0.12456,0 0.15149,0.02113 0.15149,0.118958 0,0.156035 -0.27456,0.56677 -0.48741,0.72912 -0.20416,0.15572 -0.7861,0.384704 -1.28589,0.505974 l -0.36825,0.08932 0.12554,0.164568 c 0.069,0.09049 0.12545,0.188687 0.12545,0.218155 0,0.266538 -1.19041,-0.07234 -1.86502,-0.530921 -0.14955,-0.101662 -0.64919,-0.602657 -0.89508,-0.883905 -0.78003,0.528171 -1.56234,1.025866 -2.34734,1.493268 0.0746,0.0423 0.15172,0.08352 0.22974,0.122351 0.49911,0.248433 0.61332,0.284981 0.99238,0.317556 0.61633,0.05296 0.69418,0.03248 0.87473,-0.229934 0.0847,-0.1231 0.22501,-0.260517 0.31177,-0.30538 0.1476,-0.07633 0.16614,-0.07523 0.28911,0.01657 0.24879,0.185751 0.27228,0.68259 0.056,1.185393 -0.12977,0.301672 -0.39543,0.558645 -0.77412,0.74888 -0.14855,0.07462 -0.2802,0.144919 -0.29261,0.156284 -0.0124,0.01138 0.0941,0.140869 0.23682,0.287715 0.0433,0.04462 0.0822,0.08569 0.11686,0.123949 2.07807,-1.268461 4.13114,-2.731417 6.14483,-4.377114 -0.24983,-0.7363 -0.74743,-1.766695 -1.39078,-2.90211 z m -29.64931,1.218725 c -0.0271,3.17e-4 -0.03872,0.02378 -0.03872,0.06786 0,0.355062 0.290154,1.673977 0.515055,2.341048 0.226436,0.671624 0.290689,0.962748 0.23133,1.162341 0.645725,0.823119 1.324808,1.650016 2.036167,2.478967 2.713859,3.162473 6.593321,7.020316 10.09371,10.037326 2.345418,2.02154 4.805794,3.97713 7.339401,5.83745 0.921377,-0.55019 1.860257,-1.16485 2.794027,-1.83148 -2.35648,-1.69304 -4.642002,-3.46708 -6.863267,-5.32659 -1.65865,-1.38852 -3.847518,-3.33663 -3.872439,-3.4465 -0.01,-0.0441 0.217301,-0.11838 0.715348,-0.23383 3.583903,-0.830774 7.173764,-2.280176 10.700378,-4.291488 -0.0687,-0.04397 -0.1351,-0.08947 -0.19401,-0.13323 -0.20603,-0.153049 -0.63906,-0.416233 -0.96224,-0.584913 -0.73105,-0.381554 -1.21635,-0.737772 -1.71802,-1.276707 -3.244504,1.698921 -6.732493,2.937079 -9.936324,3.524944 -0.562524,0.103215 -0.846092,0.198677 -1.076515,0.362364 h -1e-4 c -0.0746,0.05299 -0.15858,0.0963 -0.186621,0.0963 -0.104684,0 -2.683443,-2.734897 -4.025328,-4.269034 -0.779261,-0.890906 -1.518641,-1.778344 -2.2167,-2.659901 -0.07738,0.07524 -0.20967,0.108755 -0.401785,0.122652 -0.277469,0.02007 -0.355793,0.0024 -0.68461,-0.154186 -0.474682,-0.226026 -1.059966,-0.689631 -1.674301,-1.326309 -0.33492,-0.347101 -0.505173,-0.497895 -0.574434,-0.497092 z m 67.1415,6.265182 c -1.27427,1.37397 -2.58408,2.704033 -3.93142,3.991896 0.38775,0.377011 0.80483,0.798284 1.14229,1.158254 0.18441,0.19672 0.44735,0.44559 0.58431,0.55307 0.18392,0.14435 0.36086,0.29304 0.53441,0.44989 1.81956,-1.74529 3.57162,-3.562093 5.25134,-5.444648 -0.34329,-0.06287 -0.7718,-0.145969 -1.37241,-0.262965 -0.99073,-0.192989 -1.69584,-0.334895 -2.20852,-0.445497 z m 23.64151,8.44725 c -1.80613,2.76834 -3.76904,5.43081 -5.84454,7.91853 -2.98946,3.58322 -6.35344,6.99389 -9.90648,10.06078 0.30902,0.48168 0.65868,0.99518 0.9819,1.43588 0.28316,0.38608 0.50012,0.67034 0.72154,0.936 6.38755,-5.46413 11.89915,-11.76109 16.42136,-18.67259 -0.15365,-0.10699 -0.30331,-0.21187 -0.43631,-0.30588 -0.45299,-0.32019 -1.00483,-0.70995 -1.22631,-0.86614 -0.25128,-0.17722 -0.48885,-0.34642 -0.71116,-0.50658 z m -33.52554,0.76525 c -1.42303,1.14434 -2.88442,2.25086 -4.386,3.32116 -0.43768,0.31197 -0.88098,0.62132 -1.3294,0.92781 0.53559,1.21055 0.76005,1.78908 1.15984,2.98694 2.10148,-1.41038 4.14469,-2.9041 6.10571,-4.46613 0.32822,-0.26144 0.65474,-0.52505 0.97951,-0.7908 -1.50034,-1.21087 -1.93697,-1.55183 -2.41919,-1.89924 -0.0369,-0.0266 -0.0738,-0.0532 -0.11047,-0.0797 z m -31.09738,6.82864 c -0.0491,0.0396 -0.0935,0.0757 -0.13213,0.10748 -0.28179,0.23185 -0.52423,0.42154 -0.5387,0.42154 -0.0145,0 -0.49298,0.30824 -1.06334,0.68501 -0.3151,0.20815 -0.70375,0.45303 -1.05965,0.66944 1.62989,1.11893 3.28191,2.19516 4.94576,3.22136 0.69345,-0.671 1.43177,-1.40595 1.66092,-1.66162 0.12316,-0.13742 0.31969,-0.37589 0.5448,-0.65767 -1.47915,-0.90177 -2.93124,-1.82993 -4.35766,-2.78554 z m 18.76302,1.5268 c -2.67822,1.5062 -5.42892,2.87624 -8.15395,4.05487 -0.20378,0.0881 -0.39675,0.16793 -0.5416,0.22464 -0.34883,0.41131 -0.71044,0.7894 -1.05576,1.09857 -0.24175,0.21644 -0.71543,0.64875 -1.05266,0.96065 -0.12277,0.11355 -0.27851,0.25261 -0.4453,0.39829 0.17232,0.0936 0.37609,0.2007 0.57304,0.30019 0.40749,0.20584 1.7641,0.8925 3.01468,1.52601 2.38468,1.20799 3.76131,1.8558 5.80003,2.72925 3.04916,1.30637 5.97647,2.39003 8.79404,3.2543 -0.40037,-0.32837 -0.97305,-0.76025 -1.74336,-1.31523 -1.02923,-0.74153 -1.72782,-1.56271 -2.7573,-3.24102 -0.0764,-0.12451 -0.15552,-0.26249 -0.23642,-0.41157 -1.48545,-0.58008 -2.99318,-1.21496 -4.51743,-1.90264 -1.30214,-0.58747 -3.01223,-1.41241 -2.98474,-1.43987 0.0116,-0.0116 0.66936,-0.33079 1.46163,-0.70926 1.30344,-0.62267 2.60156,-1.28278 3.88961,-1.97749 -0.0845,-0.42806 -0.11249,-0.74446 -0.12824,-1.17511 -0.0226,-0.61685 0.0143,-1.57982 0.0837,-2.37458 z m 26.5993,11.72769 c -0.95732,0.73993 -1.92355,1.45246 -2.89522,2.13457 -0.32728,0.22974 -0.60382,0.41775 -0.61456,0.41775 -0.0107,0 -0.0698,-0.0352 -0.13123,-0.0782 -0.30423,-0.21309 -0.51055,-0.24215 -2.00593,-0.28213 -1.98398,-0.053 -3.61951,-0.21529 -5.64614,-0.56016 -0.36346,-0.0618 -0.73012,-0.12847 -1.09986,-0.1999 0.48185,0.51374 1.07141,1.132 1.48368,1.55465 0.88815,0.91048 1.48201,1.55503 1.91941,2.12359 0.19511,0.022 0.3897,0.0428 0.58371,0.0623 0.35129,0.0353 0.63766,0.0867 0.63631,0.11437 -0.002,0.0328 -0.29072,0.21974 -0.75287,0.49519 0.2798,0.45294 0.48856,0.90708 0.70836,1.47561 0.17425,0.45069 0.29958,0.8483 0.38612,1.24956 3.25754,-1.91107 6.39185,-4.02961 9.36658,-6.33624 -0.68038,-0.65225 -1.33112,-1.37858 -1.93836,-2.17089 z m -14.17582,8.85023 c -2.90747,1.43067 -6.43013,2.93714 -8.97159,3.82055 -0.24795,0.0862 -0.48492,0.16817 -0.71256,0.2465 0.70017,0.91268 1.76206,1.57376 3.14742,1.96122 2.31325,-0.87934 4.5936,-1.85941 6.83083,-2.93475 0.0717,-0.2554 0.12257,-0.48264 0.13512,-0.62842 0.0375,-0.43572 -0.0491,-1.43202 -0.15738,-1.80943 -0.0472,-0.1644 -0.14394,-0.39411 -0.27184,-0.65567 z"
       transform="translate(0,73.32046)" /><path
       style="display:inline;fill:#953b3d;fill-opacity:1;stroke-width:0.19312"
       d="m 97.707404,144.78619 c -0.447179,-0.50802 -1.048192,-1.51441 -1.328465,-2.2245 -0.524097,-1.32783 -0.785878,-2.3798 -0.924059,-3.71332 -0.05737,-0.55361 -0.139089,-1.25949 -0.181607,-1.56863 -0.125215,-0.91039 -0.09416,-1.49373 0.155045,-2.91248 0.454393,-2.5869 0.5222,-2.78826 1.746432,-5.18627 0.731227,-1.43232 0.884037,-1.68845 1.890058,-3.16797 0.755334,-1.11085 1.895542,-2.55199 2.787982,-3.52382 0.24609,-0.26798 0.67391,-0.74017 0.9507,-1.0493 0.63744,-0.7119 1.70571,-1.73838 3.95518,-3.80046 0.74319,-0.68128 2.30795,-2.21607 2.6614,-2.61044 0.39909,-0.44529 1.56842,-1.95111 1.98522,-2.5565 0.4282,-0.62195 0.78565,-1.24675 1.31432,-2.29734 0.23279,-0.46261 0.57261,-1.11792 0.75517,-1.45625 0.3947,-0.73151 1.18791,-2.61193 1.39372,-3.30401 0.0804,-0.27045 0.1954,-0.7993 0.2555,-1.17521 0.0601,-0.37592 0.16444,-0.9709 0.23186,-1.32219 0.0674,-0.35129 0.14825,-0.88013 0.17963,-1.17521 0.0314,-0.29509 0.11849,-0.90441 0.19358,-1.35405 0.13304,-0.796673 0.1363,-0.868131 0.12763,-2.799012 -0.0138,-3.077942 -0.1294,-4.571603 -0.45757,-5.912907 -0.24295,-0.993008 -0.42668,-1.651867 -0.47431,-1.700939 -0.0215,-0.02217 -0.0299,0.713616 -0.0186,1.635081 0.0113,0.921464 -0.002,2.721587 -0.0305,4.00027 -0.068,3.097875 -0.13739,3.481048 -1.03628,5.722787 -0.25355,0.63231 -0.56368,1.41409 -0.68918,1.73727 -0.1255,0.32318 -0.27636,0.66808 -0.33525,0.76644 -0.0589,0.0984 -0.25439,0.45357 -0.43447,0.78935 -0.49592,0.9247 -1.15489,1.79391 -2.51402,3.3161 -0.60631,0.67905 -1.89497,1.8175 -3.07424,2.71591 -0.44267,0.33723 -1.0354,0.80285 -1.31719,1.0347 -0.28179,0.23184 -0.52419,0.42154 -0.53867,0.42154 -0.0145,0 -0.49298,0.30827 -1.06335,0.68505 -0.57036,0.37677 -1.38193,0.87389 -1.80347,1.10469 -0.42154,0.2308 -0.85842,0.47054 -0.97083,0.53275 -0.8283,0.45838 -3.042095,1.30293 -4.164346,1.58867 -0.393717,0.10024 -2.005411,0.2683 -3.653384,0.38094 -0.449647,0.0307 -0.944003,0.077 -1.098569,0.10286 -0.361356,0.0604 -1.738273,0.1866 -2.784747,0.25523 -0.765812,0.0502 -1.003177,0.0746 -2.043851,0.20965 -0.386133,0.0501 -1.040809,0.19241 -1.3796,0.29983 -0.08431,0.0267 -0.621508,0.13144 -1.193775,0.23267 -0.740192,0.13095 -1.260677,0.25706 -1.803418,0.43697 -0.419611,0.13909 -1.055072,0.31876 -1.412134,0.39925 -1.219809,0.27501 -3.606322,1.13354 -4.735658,1.70363 -1.00209,0.50585 -1.9648,1.36774 -2.2939,2.05367 -0.243815,0.50818 -0.389902,1.07115 -0.389902,1.50257 0,0.45836 0.07233,0.62752 0.34098,0.79748 0.123414,0.0781 0.259632,0.21011 0.302705,0.29341 0.07062,0.13656 0.07039,0.16353 -0.0023,0.27448 -0.106155,0.16201 -0.282807,0.20083 -0.57856,0.12715 -0.309365,-0.0771 -0.487191,-0.18262 -0.812404,-0.48219 -0.315147,-0.2903 -0.446497,-0.57371 -0.529202,-1.14185 -0.1,-0.68692 0.100502,-1.63973 0.524326,-2.49171 0.527818,-1.06102 1.605844,-2.22638 2.798308,-3.02499 1.000472,-0.67004 2.402264,-1.25704 4.062154,-1.70104 2.608745,-0.69781 4.477344,-1.11933 5.436341,-1.22632 0.264002,-0.0294 0.769855,-0.10051 1.124118,-0.1579 0.993814,-0.161 1.646049,-0.24607 2.509129,-0.32727 2.093424,-0.19695 4.114741,-0.56382 5.339561,-0.96914 2.485637,-0.82255 5.605308,-2.57008 8.601088,-4.818 1.18893,-0.89212 1.65003,-1.29214 2.69227,-2.33561 1.27313,-1.27462 1.88102,-2.05349 2.80313,-3.59152 0.46001,-0.76728 0.76474,-1.42224 0.92129,-1.98014 0.15779,-0.56232 0.28709,-1.251858 0.23476,-1.251858 -0.0212,0 -0.14713,0.0607 -0.27987,0.134889 -0.57556,0.321689 -1.54735,0.423829 -2.09237,0.219907 -0.36746,-0.137484 -0.86106,-0.659946 -1.11892,-1.184348 -0.36512,-0.742518 -0.47044,-1.709981 -0.24227,-2.225489 0.21113,-0.477023 0.39251,-0.470468 0.61592,0.02226 0.21599,0.476367 0.34223,0.628576 0.63395,0.764415 0.39922,0.185887 0.74352,0.167813 1.20546,-0.06328 0.83809,-0.419276 1.47136,-1.327318 1.78814,-2.564001 0.24832,-0.96943 0.33906,-2.712504 0.17521,-3.365844 -0.31497,-1.255885 -1.71234,-3.847021 -3.35671,-6.224295 -0.83078,-1.201056 -1.37306,-1.853536 -1.74069,-2.094416 -0.1872,-0.12266 -0.21217,-0.08197 -0.29116,0.474491 -0.0872,0.614067 -0.0414,1.555236 0.09,1.849858 0.13103,0.293837 0.5223,0.729141 0.75434,0.83925 0.10482,0.04974 0.17971,0.122621 0.17971,0.174891 0,0.05565 0.0875,0.132121 0.23082,0.201756 0.83617,0.406245 1.56508,1.869035 1.5553,3.121206 -0.004,0.484313 -0.19737,0.874717 -0.43374,0.874717 -0.15015,0 -0.19046,-0.05554 -0.39887,-0.549724 -0.0971,-0.230301 -0.24538,-0.505564 -0.32943,-0.611695 -0.16984,-0.214434 -0.54812,-0.453045 -0.59584,-0.375838 -0.0828,0.133948 0.47721,1.393037 0.77354,1.739235 0.28915,0.337803 0.52601,0.436734 1.03768,0.433411 0.27046,-0.0017 0.52656,-0.0354 0.67881,-0.08917 0.13447,-0.04749 0.31267,-0.08635 0.396,-0.08635 0.12456,0 0.1515,0.02116 0.1515,0.118981 0,0.156035 -0.27459,0.56677 -0.48744,0.72912 -0.20416,0.15572 -0.78611,0.384708 -1.2859,0.505978 l -0.3682,0.08934 0.12549,0.164524 c 0.069,0.09049 0.12549,0.188636 0.12549,0.218104 0,0.266538 -1.19041,-0.07234 -1.86501,-0.530913 -0.19105,-0.129866 -0.95338,-0.911271 -1.02826,-1.053982 -0.041,-0.07814 -0.0954,-0.379467 -0.1209,-0.669622 -0.0733,-0.834009 -0.15761,-0.980141 -1.0945,-1.896411 -0.67654,-0.661657 -0.80656,-0.815018 -0.95098,-1.121727 -0.31978,-0.679092 -0.25933,-1.216971 0.22006,-1.95802 0.34066,-0.526608 0.33736,-0.51709 0.28748,-0.829117 -0.0417,-0.260936 -0.067,-0.480175 -0.19734,-1.711725 -0.0268,-0.252927 -0.0615,-0.839258 -0.0771,-1.302956 -0.0324,-0.959962 -0.0697,-1.379599 -0.12263,-1.379599 -0.0201,0 -0.12682,0.04599 -0.23706,0.102193 -0.36201,0.184563 -0.6387,0.108301 -0.6387,-0.176035 0,-0.202731 -0.24861,-0.590309 -0.59993,-0.93531 -0.32066,-0.31488 -0.40359,-0.370448 -0.55291,-0.370448 -0.21417,0 -0.22192,0.05741 -0.0288,0.213456 0.21892,0.176891 0.61958,0.731806 0.61958,0.85812 0,0.129063 -0.0775,0.292062 -0.2072,0.435765 -0.0967,0.10711 -0.54261,1.403863 -0.71508,2.079374 -0.0553,0.216748 -0.214377,0.90675 -0.353412,1.533335 -0.139035,0.626585 -0.333012,1.472646 -0.43106,1.880141 -0.39314,1.633913 -0.36561,2.481469 0.104929,3.230382 0.211287,0.336287 0.561289,0.435209 0.871213,0.246233 0.37553,-0.228974 0.40933,-0.669309 0.091,-1.185328 -0.21236,-0.344229 -0.19552,-0.452302 0.0703,-0.4507 0.61065,0.0037 1.07121,0.60237 1.48201,1.926457 0.30779,0.99207 0.38709,1.430852 0.3695,2.044351 -0.003,0.103209 -0.0575,0.224264 -0.14525,0.322421 -0.11384,0.127331 -0.18174,0.157725 -0.35768,0.160117 -0.11943,0.0015 -0.21715,0.0194 -0.21715,0.03951 0,0.118832 0.45643,0.456529 0.94727,0.700841 0.49911,0.248433 0.61337,0.284993 0.99243,0.317568 0.61632,0.05297 0.69416,0.03251 0.87471,-0.229907 0.0847,-0.1231 0.22497,-0.260522 0.31172,-0.305386 0.14761,-0.07633 0.16618,-0.07527 0.28914,0.01653 0.2488,0.18575 0.27225,0.68262 0.0559,1.185423 -0.12978,0.301673 -0.39537,0.558611 -0.77406,0.748845 -0.14855,0.07462 -0.28024,0.144977 -0.29265,0.156342 -0.0124,0.01138 0.0942,0.140812 0.23686,0.287658 0.2834,0.291684 0.3733,0.434842 0.3733,0.59439 0,0.0573 0.0492,0.205435 0.10932,0.329184 0.15074,0.310272 0.10538,0.476933 -0.14246,0.523428 -0.1449,0.02718 -0.24289,0.006 -0.44668,-0.0966 -0.14359,-0.07228 -0.39141,-0.179865 -0.55071,-0.239084 -0.15931,-0.05922 -0.45822,-0.232887 -0.66426,-0.385934 -0.20603,-0.15305 -0.63903,-0.416281 -0.96221,-0.584962 -0.85626,-0.446912 -1.37532,-0.858991 -1.97851,-1.570732 -0.633941,-0.748024 -1.035506,-1.125324 -1.631281,-1.532707 -0.55455,-0.379192 -1.429225,-1.113032 -1.610649,-1.351313 -0.535265,-0.703008 -0.701533,-1.792904 -0.450855,-2.955385 0.251083,-1.164356 0.36213,-1.803741 0.563521,-3.244613 0.125465,-0.897652 0.217118,-1.755221 0.221167,-2.069398 l 0.0069,-0.536512 -0.340688,-0.0095 c -0.243657,-0.0068 -0.348128,0.0099 -0.366812,0.05858 -0.01463,0.03813 -0.145714,0.083 -0.298016,0.102003 -0.340921,0.04254 -0.55292,0.122626 -0.55292,0.208877 0,0.03659 0.05573,0.13276 0.123849,0.213712 0.164956,0.196038 0.387114,0.618933 0.387114,0.736901 0,0.161886 -0.186285,0.305351 -0.345678,0.266217 -0.286768,-0.0704 -0.92302,-0.39268 -1.442692,-0.730753 -0.516725,-0.33616 -0.908151,-0.513904 -1.131711,-0.513904 -0.08299,0 -0.01033,0.100762 0.332317,0.460823 0.512145,0.538176 0.708388,0.845831 0.715627,1.121906 0.0068,0.259897 -0.117908,0.391531 -0.467179,0.493066 -0.320113,0.09306 -0.677466,0.06566 -1.117266,-0.08565 -0.479212,-0.164872 -1.265173,-0.606338 -1.731829,-0.972748 -0.411308,-0.322954 -0.614283,-0.443556 -0.663566,-0.394274 -0.03373,0.03374 0.281205,0.6213 0.438108,0.817351 0.08302,0.103738 0.151663,0.218704 0.152532,0.25548 0.0017,0.0735 0.317652,0.323929 0.637124,0.505056 0.402852,0.228399 0.584306,0.4756 0.485131,0.660912 -0.08394,0.156841 -0.528787,0.356119 -0.966925,0.433151 -0.658681,0.115808 -1.205832,0.03749 -2.109471,-0.301926 -0.259423,-0.09744 -0.480711,-0.168136 -0.491752,-0.157095 -0.01104,0.01105 0.166899,0.222816 0.395421,0.470612 1.315036,1.425942 1.661081,2.318138 1.026403,2.646343 -0.320441,0.165707 -1.058358,0.06166 -1.749153,-0.246625 -0.500719,-0.223461 -1.61847,-0.846543 -2.286889,-1.274807 -0.916775,-0.587389 -0.972567,-0.618495 -1.018783,-0.567998 -0.06404,0.06997 0.132609,1.109909 0.307539,1.626385 0.196664,0.580645 0.395612,0.939431 0.884159,1.594513 0.440894,0.591182 0.652159,0.960747 0.610814,1.068491 -0.113057,0.29462 -1.479431,-0.01203 -2.3259,-0.521987 -0.52383,-0.315585 -1.254546,-0.919579 -1.663143,-1.37472 -0.309254,-0.344481 -0.318385,-0.350249 -0.318781,-0.20135 -4.44e-4,0.166678 0.187506,0.788459 0.473619,1.56685 0.35096,0.954815 0.304999,1.166355 -0.262326,1.207391 -0.277469,0.02007 -0.355808,0.0024 -0.684625,-0.154137 -0.474682,-0.226025 -1.059924,-0.689644 -1.674259,-1.326322 -0.465976,-0.482923 -0.613155,-0.585948 -0.613155,-0.429206 0,0.355062 0.290207,1.674001 0.515108,2.341071 0.277721,0.823739 0.311374,1.07505 0.172369,1.287197 -0.102553,0.156516 -0.411608,0.251603 -0.663921,0.204267 -0.24001,-0.04503 -0.744565,-0.377115 -1.051076,-0.691797 -0.44861,-0.460572 -1.276868,-1.737012 -1.765854,-2.721384 -0.134404,-0.270567 -0.259292,-0.491938 -0.277529,-0.491938 -0.01824,0 -0.107064,0.211642 -0.197392,0.470314 -0.291956,0.836077 -0.698582,1.537826 -1.553501,2.681014 -0.772078,1.032417 -1.275663,1.502878 -2.001739,1.870076 -0.385015,0.194711 -0.80547,0.303887 -1.017292,0.264149 -0.23392,-0.04388 -0.43677,-0.278149 -0.43677,-0.504412 0,-0.173867 0.336037,-0.901145 0.811319,-1.755918 0.372826,-0.670508 0.595826,-1.236413 0.772786,-1.961091 0.147628,-0.604561 0.20224,-1.193115 0.107432,-1.157809 -0.02516,0.0094 -0.189231,0.212476 -0.364614,0.45135 -0.430057,0.585748 -1.544321,1.689665 -2.165068,2.144966 -0.510349,0.374328 -1.525274,1.047149 -2.110088,1.398834 -1.067731,0.642094 -1.936352,0.805783 -2.193481,0.413354 -0.209422,-0.319619 0.170875,-1.196934 1.068079,-2.463967 0.330483,-0.466709 0.520004,-0.848304 0.476989,-0.960399 -0.03459,-0.09015 -0.447377,-0.09957 -0.609382,-0.0139 -0.06138,0.03246 -0.226574,0.155228 -0.367088,0.272816 -0.377196,0.315653 -0.803496,0.560291 -1.459234,0.837406 -1.581686,0.668419 -2.312944,0.780932 -2.493922,0.383725 -0.106228,-0.233142 0.02034,-0.538634 0.434139,-1.047831 0.332087,-0.408653 0.564989,-0.898109 0.806526,-1.694958 0.186258,-0.614488 0.323555,-1.602411 0.235029,-1.691175 -0.118835,-0.119157 -1.174781,0.893428 -1.592337,1.52695 -0.496327,0.753032 -0.666375,1.215712 -0.938958,2.554812 -0.164534,0.808295 -0.18305,0.972358 -0.152831,1.354052 0.01891,0.238875 0.04575,0.482747 0.05964,0.54194 0.03206,0.136596 -0.103543,0.2756 -0.268849,0.2756 -0.376588,0 -0.799138,-0.414215 -1.154528,-1.131756 -0.446659,-0.901811 -0.658044,-1.937777 -0.660497,-3.236975 -0.0017,-0.876055 0.115584,-2.161675 0.241608,-2.64943 0.04249,-0.164451 0.07027,-0.330619 0.06173,-0.369264 -0.01134,-0.05134 -0.155587,-0.003 -0.535672,0.179434 -0.620899,0.298061 -0.97596,0.424176 -1.523698,0.541202 -0.224824,0.04803 -0.569724,0.150927 -0.766444,0.228652 -1.594586,0.630015 -3.250273,0.881424 -4.577487,0.695067 -0.759478,-0.106639 -1.119372,-0.199927 -1.516204,-0.393016 -0.341286,-0.16606 -0.47218,-0.332166 -0.47218,-0.599195 0,-0.395082 0.374183,-0.591344 1.912786,-1.003272 1.011364,-0.270772 1.823496,-0.754355 2.703582,-1.609849 0.551996,-0.536569 0.94104,-1.002164 0.884575,-1.058626 -0.01632,-0.01632 -0.243261,0.106886 -0.504303,0.273805 -0.6928,0.442997 -1.109031,0.678955 -1.85422,1.051132 -1.621488,0.809838 -2.865224,1.250072 -4.292087,1.519227 -1.013315,0.191146 -1.295498,0.21886 -1.953276,0.191835 -0.750432,-0.03083 -1.339167,-0.178723 -1.914058,-0.480818 -0.371053,-0.194983 -0.756879,-0.565582 -0.756879,-0.727007 0,-0.309218 0.181463,-0.410878 1.3796,-0.772889 0.526355,-0.159034 1.140886,-0.423278 1.50734,-0.648144 0.466208,-0.28608 1.01895,-0.697257 0.962575,-0.71605 -0.02759,-0.0092 -0.186473,0.04409 -0.353077,0.11841 -0.760614,0.339303 -1.742321,0.621946 -2.756973,0.793762 -0.556248,0.09419 -0.86821,0.112653 -1.940228,0.114806 -2.298868,0.0046 -4.046981,-0.270636 -4.571821,-0.719877 -0.174707,-0.149546 -0.20568,-0.205964 -0.20568,-0.374681 0,-0.416668 0.386634,-0.672524 1.647103,-1.089978 0.740582,-0.245272 1.225888,-0.458924 1.330308,-0.585657 0.05488,-0.06661 0.02732,-0.07181 -0.218212,-0.04118 -1.766401,0.220363 -5.433964,-0.05526 -7.434507,-0.558726 -0.940221,-0.236616 -1.977597,-0.642871 -2.233919,-0.874839 -0.366435,-0.331618 0.01027,-0.563247 1.26512,-0.777902 0.976363,-0.167017 1.102569,-0.293744 0.548823,-0.551091 -0.34523,-0.16044 -0.350213,-0.161107 -1.393942,-0.186578 -1.021061,-0.02492 -1.759269,-0.110651 -3.148189,-0.365624 -0.724264,-0.132959 -2.069877,-0.471676 -2.559105,-0.644177 -0.82142,-0.289632 -1.395088,-0.632499 -1.395088,-0.833807 0,-0.158204 0.07843,-0.181818 0.60456,-0.182012 1.011106,-3.67e-4 2.022364,-0.298662 2.81889,-0.831484 0.245349,-0.164121 0.613155,-0.495118 0.613155,-0.551791 0,-0.01881 -0.09772,-0.0496 -0.217159,-0.06843 -0.742717,-0.117097 -4.510851,-1.180417 -5.459146,-1.540502 -0.348746,-0.132425 -0.864018,-0.327194 -1.145048,-0.432821 -1.724859,-0.648295 -3.857093,-1.855082 -5.288464,-2.993128 -1.381463,-1.098364 -1.825068,-1.46313 -2.222688,-1.827658 -0.252926,-0.231877 -0.669943,-0.608849 -0.926701,-0.837715 -0.571598,-0.509501 -1.315945,-1.363559 -1.694352,-1.944085 -0.214882,-0.329659 -0.28794,-0.491186 -0.305684,-0.675853 -0.02103,-0.218845 -0.01,-0.251413 0.11275,-0.331817 0.204007,-0.133671 0.382321,-0.05787 1.459937,0.620638 1.412005,0.88905 2.137563,1.29652 3.585489,2.013592 2.201221,1.090137 3.905472,1.813863 5.509647,2.339724 1.664121,0.545511 2.260284,0.730543 2.282429,0.708399 0.01261,-0.01261 -0.237109,-0.241041 -0.554922,-0.507636 -1.810765,-1.518943 -3.660006,-4.024176 -4.514337,-6.115732 -0.40852,-1.000128 -0.706332,-2.053192 -0.677694,-2.396328 0.01329,-0.159221 0.03359,-0.186021 0.14094,-0.186021 0.09724,0 0.236381,0.131984 0.619451,0.587607 0.772785,0.919147 1.746738,1.951814 2.499749,2.65044 0.379389,0.351989 1.16126,1.08954 1.73749,1.639002 1.445442,1.378296 2.081241,1.945367 3.091107,2.756971 1.451694,1.166691 2.287486,1.697266 4.107254,2.607356 1.309495,0.654896 3.453367,1.580522 3.51589,1.518 0.01248,-0.01248 -0.128108,-0.175743 -0.312422,-0.3628 -1.011177,-1.026221 -1.907511,-2.534916 -2.260832,-3.805394 -0.10396,-0.373818 -0.217056,-0.920184 -0.219414,-1.059983 -0.002,-0.115334 0.11956,-0.271906 0.21101,-0.271906 0.02877,0 0.389308,0.327655 0.801206,0.728122 1.241065,1.206624 3.58645,3.057094 5.372939,4.239158 0.747082,0.494321 1.924642,1.09499 2.725282,1.390157 0.979184,0.36099 3.247571,0.855216 3.677415,0.801219 0.02267,-0.0028 3.87e-4,-0.07414 -0.04931,-0.158423 -0.0852,-0.144239 -0.08542,-0.158353 -0.0037,-0.240121 0.08177,-0.08177 0.128214,-0.06679 0.790212,0.254857 1.080603,0.525033 1.943136,0.770269 2.920096,0.830244 0.242136,0.01487 0.532735,0.0366 0.645775,0.0483 0.463455,0.04796 0.430061,3.9e-5 -0.950715,-1.364381 -1.00216,-0.99029 -1.373782,-1.393121 -1.592355,-1.726079 -0.375738,-0.572373 -0.561931,-1.043908 -0.569252,-1.44164 -0.0052,-0.280737 0.0072,-0.318991 0.134288,-0.41424 0.107631,-0.08069 0.213919,-0.104343 0.459866,-0.102361 0.577204,0.0047 1.073663,0.263023 2.031609,1.057298 0.75085,0.622563 1.316934,1.000528 2.105218,1.405622 0.666698,0.34261 1.914097,0.858147 1.961554,0.81069 0.01325,-0.01325 -0.223799,-0.231067 -0.526775,-0.484039 -1.502025,-1.254127 -1.949416,-2.05764 -1.145681,-2.05764 0.297175,0 1.358683,0.350502 2.664215,0.879707 1.871313,0.758546 3.228235,1.152204 4.751953,1.378596 0.722475,0.107345 0.957934,0.117266 2.682554,0.113037 1.801717,-0.0044 1.925381,-0.01089 2.63146,-0.13764 1.153145,-0.207009 2.245495,-0.613926 2.708101,-1.008811 0.171277,-0.146204 0.174517,-0.155149 0.07664,-0.211595 -0.254607,-0.146841 -1.047474,-1.033029 -1.047474,-1.170761 0,-0.153948 0.08602,-0.159695 0.446441,-0.02982 0.467796,0.168563 1.359716,0.340577 1.765948,0.340577 0.730484,0 1.728034,-0.293791 2.50741,-0.738464 0.54736,-0.312296 0.882595,-0.579311 1.349069,-1.074537 0.603766,-0.640982 0.931321,-1.346104 0.931321,-2.004842 0,-0.249966 -0.02609,-0.308906 -0.340221,-0.768483 -0.408409,-0.597511 -0.740678,-1.274941 -1.018414,-2.076341 -0.202405,-0.584032 -0.24291,-0.766753 -0.658157,-2.96898 -0.201374,-1.067973 -0.376521,-1.940424 -0.487239,-2.427073 -0.05435,-0.238875 -0.135078,-0.606768 -0.179403,-0.817541 -0.206158,-0.98033 -0.612127,-1.989731 -0.959251,-2.385083 -0.08921,-0.101609 -0.383625,-0.281284 -0.767514,-0.468405 -0.693005,-0.337794 -1.552454,-0.923541 -1.969728,-1.342444 -0.271018,-0.272075 -0.950228,-1.175114 -1.096157,-1.457387 -0.04155,-0.08036 -0.148756,-0.364544 -0.238246,-0.631522 -0.218521,-0.651917 -0.356206,-0.876348 -0.815014,-1.328503 -0.359678,-0.354464 -0.944464,-1.026673 -1.673802,-1.924027 -0.163425,-0.201075 -0.619043,-0.738474 -1.012486,-1.19422 -0.793989,-0.919726 -1.187606,-1.435755 -1.232939,-1.616378 -0.02094,-0.08341 -0.13853,-0.176803 -0.387118,-0.307432 -0.337315,-0.177254 -0.466044,-0.32046 -0.413135,-0.459597 0.07884,-0.207331 1.275027,-0.337754 2.062693,-0.2249 0.606375,0.08688 1.428043,0.281013 1.937706,0.457816 0.641897,0.222675 2.541195,1.010605 2.835843,1.176458 0.23417,0.131811 0.268269,0.138087 0.40877,0.07524 1.421647,-0.635915 1.911194,-0.787734 2.682555,-0.831921 1.046612,-0.05995 1.959148,0.07283 2.748952,0.400003 0.188305,0.078 0.997682,0.464624 1.798616,0.859155 1.503084,0.740402 1.816582,0.877564 2.677632,1.171516 0.91364,0.311907 1.737373,0.493237 2.994054,0.659089 0.641185,0.08462 1.038546,0.230903 1.251546,0.460734 0.1509,0.162824 0.162181,0.280911 0.0376,0.393652 -0.190688,0.17257 -1.653175,0.611234 -2.51546,0.754496 -0.210772,0.03502 -0.403262,0.08136 -0.427755,0.102984 -0.101888,0.08995 1.088213,0.58003 1.921414,0.791236 0.280845,0.07119 0.847184,0.16412 1.258531,0.20651 1.513184,0.155937 1.946183,0.267366 2.342926,0.602935 0.295779,0.250173 0.262229,0.650114 -0.07466,0.89 -0.374671,0.266789 -1.736123,0.530042 -3.206538,0.620022 -1.160353,0.07101 -1.916111,0.192027 -1.916111,0.306832 0,0.223887 -0.487901,0.512733 -1.038429,0.614767 -0.591294,0.109589 -0.200726,0.252931 0.773994,0.284062 0.374465,0.01196 0.70212,0.03489 0.728122,0.05096 0.07033,0.04346 0.0572,0.264795 -0.02501,0.42172 -0.13763,0.262708 -0.606049,0.623392 -0.809596,0.623392 -0.03818,0 -0.113304,0.03209 -0.166944,0.07131 -0.09188,0.06718 -0.08579,0.07636 0.105201,0.158399 0.28266,0.121422 0.999901,0.154272 1.342665,0.0615 0.236047,-0.06389 0.280865,-0.06387 0.3449,1.65e-4 0.04048,0.04048 0.0736,0.103358 0.0736,0.139729 0,0.145512 -0.371703,0.796939 -0.538091,0.94303 -0.09749,0.0856 -0.177256,0.179329 -0.177256,0.208291 0,0.07487 0.726636,0.06327 1.098569,-0.01754 0.432833,-0.09403 0.780485,-0.286597 1.063308,-0.588957 0.409222,-0.437492 0.581562,-0.307986 0.397325,0.298572 -0.05844,0.192406 -0.187419,0.470435 -0.286616,0.617842 -0.0992,0.147407 -0.168889,0.279483 -0.15487,0.293502 0.06001,0.06001 0.642776,-0.354471 1.072888,-0.763065 0.256039,-0.243229 0.509974,-0.450169 0.564301,-0.459866 0.172395,-0.03077 0.227973,0.180376 0.177156,0.673052 -0.02469,0.239361 -0.08049,0.536113 -0.124006,0.659448 -0.04352,0.123334 -0.06966,0.233701 -0.05811,0.245258 0.0313,0.0313 0.500596,-0.215382 0.914577,-0.480738 0.374879,-0.240291 2.396401,-1.756418 3.485328,-2.613971 0.693604,-0.546226 2.282855,-2.087559 2.747882,-2.665028 0.29053,-0.360779 0.832954,-1.389248 0.923662,-1.75132 0.01954,-0.07798 0.181272,-0.491863 0.359412,-0.919733 0.951671,-2.285804 1.625217,-5.209786 1.610811,-6.992824 -0.0031,-0.388016 0.01766,-0.544362 0.09543,-0.717374 0.245236,-0.545574 0.751792,-0.682476 1.051259,-0.284115 0.174133,0.231636 0.560069,1.019159 0.700652,1.429714 0.107725,0.314599 0.199337,0.442122 0.20189,0.28103 5.6e-4,-0.03513 0.02204,-0.213327 0.04775,-0.395996 0.0257,-0.182669 0.06173,-0.803489 0.08005,-1.379601 0.01832,-0.576109 0.03984,-1.223551 0.04781,-1.438758 0.04465,-1.205264 -0.277509,-2.872431 -0.925517,-4.789469 -0.212697,-0.629233 -0.202278,-0.801837 0.0645,-1.068621 0.16173,-0.16173 0.19542,-0.17402 0.410577,-0.149768 0.128915,0.01452 0.294995,0.07082 0.369068,0.125095 0.226094,0.165655 0.640051,0.755929 0.971089,1.384704 0.443801,0.84296 0.622985,1.147647 0.655686,1.114946 0.037,-0.037 -0.07541,-0.802181 -0.166677,-1.1346 -0.185045,-0.674001 -0.343566,-1.66469 -0.408196,-2.551058 -0.02937,-0.402778 -0.161801,-1.105736 -0.404298,-2.146043 C 94.90241,29.9684 94.555846,27.909768 94.482067,27.19283 94.33078,25.722702 94.36609,24.167713 94.589393,22.466425 c 0.153657,-1.170677 0.31983,-1.906838 0.653162,-2.893562 0.720128,-2.131714 0.894709,-3.712469 0.687323,-6.223401 -0.06564,-0.794695 -0.07344,-1.117795 -0.03271,-1.354051 0.104431,-0.60568 0.292677,-0.852582 0.592634,-0.777298 0.280135,0.07031 0.649321,0.602899 0.97898,1.412279 0.117075,0.287444 0.377719,1.114657 1.001129,3.177315 0.08224,0.272119 0.324549,0.927429 0.538457,1.456245 0.359053,0.887642 0.565645,1.47219 0.670476,1.897106 0.02296,0.09305 0.06411,0.173526 0.09146,0.178837 0.05964,0.01159 0.09259,-0.201192 0.227997,-1.472135 0.275429,-2.585235 0.276769,-4.074312 0.0059,-6.591419 C 99.977115,11.0234 99.919114,10.47156 99.875438,10.050016 99.789919,9.2246318 99.709867,8.7297836 99.544803,8.0061657 99.487109,7.7532387 99.392092,7.3278615 99.333656,7.060885 99.172444,6.324359 98.843103,4.9597997 98.667712,4.3016862 98.405496,3.3177737 98.316285,2.9790301 98.109267,2.1811905 97.999886,1.7596467 97.817589,1.1043353 97.70416,0.72494568 c -0.2887,-0.96563171 -0.282566,-1.44312229 0.0227,-1.76679878 0.223248,-0.2367108 0.525047,-0.2457642 0.829949,-0.024895 0.192961,0.13978014 0.949024,1.10218289 1.435169,1.82684748 0.116662,0.17390049 0.235672,0.33074662 0.264472,0.34854452 0.0485,0.029941 0.0359,-0.52373506 -0.0283,-1.25233349 -0.0112,-0.12646449 -0.0326,-1.34511011 -0.0477,-2.70810321 -0.0544,-4.9174455 -0.0769,-5.2652388 -0.536848,-8.3031442 -0.221546,-1.463244 -0.71028,-4.40469 -0.768334,-4.624213 -0.04298,-0.16251 -0.182792,-0.87058 -0.539791,-2.733651 -0.272315,-1.421135 -0.634593,-3.662593 -0.633525,-3.919707 0.0019,-0.454716 0.253238,-0.857794 0.534897,-0.857794 0.165474,0 0.459758,0.22926 0.707414,0.551108 0.388366,0.504711 0.945424,1.708457 1.569747,3.392056 0.17016,0.458885 0.35214,0.949304 0.40438,1.089819 0.0523,0.140514 0.24427,0.657865 0.42671,1.149666 0.18244,0.4918 0.58357,1.572487 0.89139,2.401525 1.16283,3.1318 1.34347,3.623781 1.62276,4.419828 0.28554,0.8138553 0.37425,1.1024612 0.51827,1.6861773 0.0416,0.1686168 0.10687,0.4330402 0.14502,0.5876056 0.12184,0.4935369 0.32962,1.4331612 0.49151,2.2226889 0.38558,1.880469 0.38706,1.8861989 0.73536,2.861392 0.12045,0.3372354 0.24792,0.7108758 0.28328,0.8303127 0.0756,0.2552522 0.16612,0.2910643 0.1292,0.051098 -0.0141,-0.091334 -0.0401,-0.9478357 -0.0579,-1.9033363 -0.0178,-0.9555007 -0.0397,-1.829246 -0.0485,-1.9416591 -0.009,-0.1124112 -0.0313,-0.5377884 -0.0499,-0.9452808 -0.0617,-1.3576436 -0.3581,-4.5794953 -0.54161,-5.8879493 -0.0265,-0.189203 -0.0704,-0.5456 -0.0975,-0.791992 -0.10064,-0.916004 -0.4076,-2.882367 -0.60836,-3.896987 -0.79195,-4.002606 -1.80128,-7.374026 -2.81467,-9.401714 -0.64745,-1.295503 -1.04814,-1.885749 -2.242422,-3.303335 -0.687813,-0.816416 -0.845366,-1.049154 -0.963348,-1.423071 -0.18408,-0.583401 0.103881,-1.04683 0.650749,-1.047282 0.25358,-1.93e-4 0.792201,0.230666 1.212071,0.519546 0.73029,0.502447 2.82301,2.446549 3.76204,3.494867 0.51805,0.57834 1.70691,2.10179 2.11346,2.708272 0.41611,0.620725 1.1535,1.795594 1.26443,2.014586 0.0498,0.09836 0.23411,0.408771 0.40952,0.689801 0.3871,0.620175 0.69215,1.221994 1.09282,2.155941 0.35263,0.82196 0.74292,1.682718 1.15393,2.544915 0.93674,1.965019 1.37287,3.306238 1.68645,5.186272 0.12313,0.738228 0.23255,1.257131 0.40944,1.941659 0.0976,0.377596 0.41339,2.227536 0.5103,2.9891309 0.0429,0.3372354 0.0926,0.6821358 0.1104,0.7664441 0.0554,0.2624691 0.10415,0.015392 0.14101,-0.7153465 0.0184,-0.3653402 0.0467,-0.8481995 0.0628,-1.0730218 0.0408,-0.5691046 0.0393,-4.3283067 -0.002,-5.2884647 -0.0478,-1.105543 -0.11944,-1.953841 -0.2331,-2.759199 -0.0535,-0.37939 -0.12311,-1.00021 -0.15459,-1.379599 -0.16222,-1.95547 -0.19956,-2.246375 -0.53454,-4.164346 -0.22214,-1.271909 -0.5075,-2.425716 -0.87539,-3.539486 -0.0675,-0.204334 -0.2734,-0.871142 -0.45756,-1.481793 -0.46708,-1.548708 -0.71489,-2.262595 -0.97074,-2.796451 -0.83641,-1.745262 -1.74384,-3.151219 -2.88562,-4.470924 -1.06121,-1.226593 -1.13116,-1.383275 -0.77606,-1.738376 0.34506,-0.34506 0.78027,-0.380154 1.49905,-0.120879 0.67306,0.24279 0.97917,0.463231 2.11056,1.519893 1.13844,1.063262 2.78218,2.90704 3.69621,4.146035 0.20732,0.281028 0.71381,1.039809 1.12553,1.686177 0.41173,0.646366 1.12438,1.734455 1.58366,2.417971 1.51391,2.253051 2.1717,3.447405 3.12868,5.680787 0.98802,2.305827 1.17621,2.878286 1.35219,4.11325 0.0721,0.505854 0.17523,1.195653 0.22921,1.532888 0.1534,0.958349 0.22127,2.002397 0.18404,2.831018 -0.18342,4.0818819 -0.27415,5.0205946 -0.77096,7.9758448 -0.21507,1.2792987 -0.26208,1.6798176 -0.18893,1.6095316 0.0617,-0.059319 0.49562,-1.0830234 0.78073,-1.8420575 0.48904,-1.3019826 0.85216,-2.9010936 1.02043,-4.4938798 0.13014,-1.2318471 0.12303,-1.7750891 -0.0545,-4.1643461 -0.0413,-0.5558 -0.096,-0.938851 -0.16053,-1.124119 -0.15664,-0.449762 -0.19875,-0.757076 -0.16279,-1.188254 0.041,-0.4916 0.16706,-0.719574 0.41114,-0.74351 0.19467,-0.0191 0.2872,0.09181 0.69511,0.833195 0.48563,0.88263 0.74308,1.525764 1.39041,3.473319 0.34583,1.040485 0.77907,2.274599 0.96274,2.742476 0.18367,0.4678768 0.38082,1.0082202 0.4381,1.2007625 0.13619,0.4577962 0.35038,1.7492635 0.4394,2.6494083 0.0389,0.393441 0.0975,0.9682736 0.13013,1.2774062 0.0939,0.8885576 0.0328,2.7725685 -0.12431,3.8322206 -0.17605,1.18760744 -0.38725,2.1672172 -0.72125,3.3453791 -0.15513,0.5472204 -0.37334,1.3979748 -0.48491,1.8905615 -0.35512,1.5678545 -0.8406,3.1570488 -1.26405,4.1377515 -0.26294,0.6089704 -0.83754,1.6649976 -1.26943,2.3330073 -0.49596,0.767093 -0.68418,1.086476 -1.11,1.883474 -0.22564,0.422335 -0.53012,0.963324 -0.67662,1.202199 -0.1465,0.238874 -0.29529,0.491801 -0.33066,0.562058 -0.12898,0.25627 0.30212,-0.213401 0.85982,-0.936729 0.73056,-0.947535 0.66943,-0.862999 1.04071,-1.439247 0.18107,-0.28103 0.68119,-0.982327 1.11138,-1.558436 1.93283,-2.588456 2.71811,-3.9801601 4.11258,-7.2884429 0.42644,-1.0116869 0.67521,-1.422078 0.95288,-1.5719641 0.38173,-0.206053 0.69038,0.049618 1.22786,1.0171291 0.63766,1.1478286 1.02849,2.0655319 1.21862,2.8613901 0.37522,1.5706354 0.51339,2.5982392 0.54963,4.0877025 0.0276,1.1360973 -0.0311,1.8808553 -0.21778,2.7591993 -0.24092,1.133692 -0.83159,2.852265 -1.36105,3.959962 -0.16791,0.351286 -0.38699,0.845642 -0.48684,1.098569 -0.57365,1.453024 -1.1884,2.368324 -2.46234,3.666157 -0.26896,0.274004 -0.46005,0.498189 -0.42465,0.498189 0.12186,0 0.65049,-0.29849 1.30414,-0.736371 0.36029,-0.241363 0.68487,-0.438844 0.72129,-0.438844 0.10655,0 1.45739,-1.372344 1.91863,-1.949158 0.7422,-0.928193 1.21603,-1.677792 1.917,-3.032728 0.44818,-0.8663 0.66544,-1.196886 0.82514,-1.255564 0.20323,-0.07467 0.27388,0.04617 0.37676,0.644348 0.3233,1.879789 -0.33302,5.903173 -1.29942,7.965774 -0.41419,0.884013 -0.82075,1.490655 -2.23158,3.329819 -0.43337,0.564949 -1.13285,1.484168 -1.5544,2.042707 -0.42154,0.558541 -0.92964,1.211487 -1.12911,1.45099 -0.40348,0.484468 -0.48042,0.607648 -0.48042,0.769183 0,0.104638 0.0102,0.102056 0.19161,-0.04861 0.4982,-0.413711 1.18444,-0.900311 1.95443,-1.385836 1.96319,-1.237909 2.86883,-1.97429 3.84167,-3.123675 0.13166,-0.155551 0.31908,-0.320641 0.41649,-0.366866 0.53196,-0.252429 1.07041,0.134369 0.97678,0.701658 -0.15666,0.949054 -1.57758,4.113221 -2.4654,5.490042 -0.24787,0.384391 -0.57535,0.899963 -0.72775,1.145712 -0.34504,0.556411 -1.34318,1.705831 -1.81504,2.090129 -0.3382,0.275443 -1.00344,0.713151 -2.43666,1.60324 -0.35831,0.222526 -0.65148,0.422131 -0.65148,0.443566 0,0.02143 0.12072,-0.0097 0.26826,-0.06918 0.14754,-0.05948 0.37172,-0.147113 0.49819,-0.19473 0.12646,-0.04762 0.32341,-0.145682 0.43766,-0.217918 0.11425,-0.07224 0.40024,-0.228131 0.63552,-0.346428 0.95979,-0.482574 1.4403,-0.83073 2.60575,-1.88803 1.12429,-1.01996 1.40436,-1.212302 1.84049,-1.263955 0.51302,-0.06076 0.74277,0.16166 0.70125,0.678879 -0.0417,0.519228 -0.44787,1.229801 -1.74969,3.060796 -0.73039,1.027278 -1.25619,1.698328 -1.85756,2.370708 -0.17854,0.199618 -0.30177,0.362941 -0.27385,0.362941 0.0279,0 0.26597,-0.141586 0.529,-0.314636 0.57438,-0.377895 1.14163,-0.655522 1.41402,-0.692057 0.27826,-0.03732 0.56287,0.104808 0.65595,0.327568 0.099,0.23684 0.0236,0.489775 -0.25818,0.866092 -0.21624,0.28884 -1.01472,1.09289 -1.53794,1.548672 -0.43672,0.380429 -0.79741,0.728599 -0.77649,0.749523 0.011,0.01102 0.15358,-0.04111 0.3168,-0.11584 0.18889,-0.08648 0.42028,-0.144705 0.63649,-0.160175 0.30834,-0.02206 0.35361,-0.01235 0.49022,0.105188 0.12569,0.108132 0.14973,0.166041 0.14576,0.35105 -0.006,0.272609 -0.19476,0.669507 -0.54467,1.144292 -0.38423,0.521355 -3.41864,3.534844 -4.21546,4.186398 -0.37245,0.304549 -0.66446,0.56644 -0.64892,0.581979 0.0474,0.04741 1.76494,-0.845747 2.46029,-1.279403 1.46531,-0.913835 2.2638,-1.171298 2.81104,-0.906382 0.39577,0.191589 0.48901,0.609718 0.22734,1.019463 -0.20085,0.314511 -1.83215,2.027668 -2.41526,2.536455 -0.26394,0.230302 -0.81648,0.759148 -1.22787,1.175215 -0.84481,0.854428 -1.08195,1.059194 -2.35136,2.030328 -1.03697,0.793308 -1.58994,1.159992 -2.70009,1.790475 -0.97343,0.55283 -1.03645,0.591577 -1.00817,0.619851 0.0315,0.03155 1.02204,-0.119398 1.38211,-0.210622 0.55981,-0.14183 1.48293,-0.537481 1.8727,-0.802641 1.43039,-0.973098 1.5978,-1.061375 2.01281,-1.061375 0.22653,0 0.31023,0.02521 0.43652,0.131471 0.30232,0.254391 0.31269,0.692009 0.028,1.182664 -0.23671,0.407982 -1.15394,1.272702 -1.81149,1.707778 -0.72603,0.480394 -0.83493,0.535085 -1.6577,0.832497 -0.36374,0.131481 -0.85809,0.320798 -1.09858,0.420705 -0.62062,0.257838 -1.13309,0.414336 -1.66354,0.508021 -0.25293,0.04467 -0.51238,0.09105 -0.57656,0.103067 -0.10517,0.01969 -0.0795,0.05829 0.25963,0.390893 0.20697,0.202974 0.45298,0.484009 0.54667,0.624524 0.0937,0.140515 0.58733,0.680858 1.09696,1.200762 0.73455,0.749359 0.96049,1.013163 1.09013,1.272794 0.21382,0.428248 0.21779,0.673562 0.0142,0.87718 -0.13139,0.131395 -0.18569,0.149359 -0.45142,0.149359 -0.38823,0 -0.78064,-0.129646 -1.69855,-0.561174 -1.01384,-0.476628 -1.21856,-0.516828 -2.86139,-0.561872 -1.3005,-0.03566 -1.36881,-0.04261 -1.72721,-0.175743 -0.20523,-0.07624 -0.39861,-0.130132 -0.42972,-0.119762 -0.0652,0.02172 0.72689,0.723531 1.30613,1.157296 0.52214,0.391009 1.01895,0.628156 1.65759,0.791237 0.99035,0.252893 1.44145,0.599032 1.44145,1.106058 0,0.121814 -0.0496,0.213909 -0.19162,0.355825 -0.21975,0.219596 -0.48085,0.294168 -1.19407,0.341032 -0.71424,0.04693 -2.55298,-0.154442 -3.36118,-0.368111 -0.26418,-0.06984 -0.48944,-0.117867 -0.50059,-0.106721 -0.0111,0.01115 0.17051,0.170172 0.40368,0.353391 0.23317,0.183219 0.51592,0.429481 0.62833,0.547249 0.18083,0.189448 0.56721,0.434549 2.08739,1.324146 0.74212,0.434284 0.99324,0.865297 0.65904,1.131125 -0.13048,0.10378 -0.17885,0.109725 -0.67703,0.0832 -0.6568,-0.03496 -1.47312,-0.224312 -2.78474,-0.64593 -1.72848,-0.555609 -3.52767,-1.013403 -3.67018,-0.933856 -0.0233,0.013 0.16163,0.233847 0.41094,0.490774 0.82206,0.847197 1.27081,1.457058 1.39283,1.892869 0.12798,0.457115 -0.13271,0.595766 -0.76855,0.408758 -0.29414,-0.08651 -3.51848,-1.692113 -4.46743,-2.224619 -0.67359,-0.377988 -1.61113,-0.815671 -1.66969,-0.779482 -0.0231,0.01429 -0.042,0.08924 -0.042,0.166557 0,0.142522 0.38052,0.618421 2.12049,2.652002 0.66882,0.781672 0.94528,1.197759 0.94528,1.422667 0,0.485422 -0.90211,0.432092 -1.84478,-0.109056 -0.72157,-0.414231 -2.37477,-1.489852 -3.01016,-1.958508 -0.34721,-0.256097 -0.6419,-0.455026 -0.65486,-0.442063 -0.013,0.01296 0.0795,0.179235 0.20537,0.369495 0.4321,0.652902 0.59476,0.959849 0.75196,1.418949 0.19468,0.568585 0.20133,0.723432 0.0344,0.799508 -0.27296,0.124372 -0.46214,0.02546 -1.56854,-0.820129 -0.23547,-0.179959 -0.68105,-0.448662 -0.99018,-0.597117 -0.70115,-0.336715 -1.40515,-0.528512 -1.40515,-0.38282 0,0.0258 0.27017,0.298998 0.60038,0.607098 1.40992,1.315513 1.89654,1.665409 4.33041,3.113731 0.61827,0.36791 1.37705,0.845396 1.68618,1.06108 0.89829,0.626748 1.56083,1.054179 1.78483,1.15148 0.45457,0.197455 1.24937,0.279639 2.50726,0.259255 2.54698,-0.04128 2.68819,-0.0383 2.97794,0.06269 0.50309,0.175349 0.72293,0.498132 0.48383,0.710381 -0.30742,0.272894 -1.54151,0.742603 -2.25303,0.857532 -0.21911,0.03539 -0.35633,0.07952 -0.32979,0.106065 0.0831,0.08312 1.15622,0.210079 1.77805,0.210366 0.55293,2.51e-4 0.66084,-0.01563 1.09857,-0.161736 0.59273,-0.197835 1.60039,-0.676479 2.07553,-0.985877 0.59301,-0.386158 0.90291,-0.54048 1.16045,-0.577862 0.3091,-0.04487 0.47751,0.0367 0.53953,0.261312 0.13887,0.502943 -0.2962,1.352158 -1.18002,2.303309 -0.53054,0.570953 -0.61902,0.691844 -0.54209,0.740628 0.11675,0.07404 1.12306,0.04962 1.44874,-0.03516 0.41298,-0.107505 0.93709,-0.367283 1.42865,-0.708113 0.76373,-0.529539 0.81041,-0.533217 0.85703,-0.06754 0.0633,0.632683 -0.18459,1.230318 -0.71701,1.728373 -0.1812,0.169506 -0.31935,0.318303 -0.30699,0.330661 0.0392,0.0392 0.60046,-0.173902 1.15242,-0.437566 0.95352,-0.455486 1.36064,-0.810287 1.82128,-1.587231 0.4808,-0.810928 0.66793,-1.499801 0.54047,-1.989605 -0.12745,-0.489787 -0.12664,-0.504345 0.0315,-0.564457 0.32235,-0.122557 0.85207,0.177968 1.3122,0.744456 0.45753,0.563291 0.61036,1.011732 0.60856,1.78566 -0.001,0.537215 -0.11942,0.863125 -0.55296,1.525087 -0.48271,0.737039 -1.12851,1.33678 -1.85952,1.726883 -0.12646,0.06749 -0.3334,0.193446 -0.45986,0.279908 -0.25395,0.17362 -1.21678,0.591282 -1.59676,0.692654 -0.13349,0.03561 -0.24271,0.07932 -0.24271,0.09712 0,0.01781 0.54609,0.04948 1.21354,0.07038 0.66744,0.0209 1.30523,0.04282 1.41729,0.04869 0.24654,0.01294 1.28153,-0.146904 1.63571,-0.252603 0.72224,-0.21554 1.78717,-0.281307 2.77399,-0.171316 1.0027,0.111762 3.01954,0.723257 3.87499,1.174871 0.98388,0.519423 2.01642,0.913528 3.6881,1.407695 0.70729,0.209081 2.35814,0.491003 3.25453,0.555787 0.25293,0.01829 0.6668,0.0678 0.91973,0.110039 1.25818,0.210138 2.53469,0.08209 3.95996,-0.397235 0.67008,-0.22535 0.90067,-0.24577 1.06339,-0.09418 0.21004,0.195682 0.12037,0.444025 -0.30478,0.844061 -0.34019,0.320092 -0.79271,0.59556 -1.19293,0.72618 -0.16861,0.05503 -0.52669,0.182512 -0.79571,0.283286 -0.69841,0.261617 -1.99648,0.583592 -2.60422,0.645958 -1.38278,0.141901 -2.89805,0.0217 -4.76264,-0.377786 -0.0492,-0.01053 -0.10045,-0.0012 -0.114,0.0207 -0.0846,0.136911 3.20984,1.418328 5.07328,1.97331 1.22373,0.364459 2.50943,0.796908 3.8931,1.309458 1.49648,0.554343 1.93567,0.703333 3.27016,1.109375 0.63231,0.192393 1.67851,0.515137 2.32488,0.71721 0.64636,0.202071 1.72705,0.492558 2.40152,0.645524 1.31221,0.297605 1.5822,0.36791 2.73365,0.711849 0.4075,0.121718 1.17697,0.326987 1.70995,0.456155 1.56285,0.378754 2.36258,0.651101 4.24277,1.444874 5.49368,2.319302 8.62302,4.37161 12.11275,7.943857 0.50746,0.51946 1.14203,1.21828 1.41016,1.55291 0.4482,0.5594 1.92069,2.54605 2.60967,3.52092 0.15889,0.22483 0.46231,0.62721 0.67426,0.89419 0.61576,0.7756 0.87664,1.33463 0.93093,1.99479 0.038,0.46255 -0.0559,0.84414 -0.28604,1.16182 -0.25997,0.35888 -0.37154,0.40341 -1.25421,0.50062 -0.25907,0.0285 -0.32545,0.0184 -0.42835,-0.0651 -0.10358,-0.0841 -0.113,-0.11527 -0.063,-0.20862 0.0339,-0.0633 0.1502,-0.13583 0.27506,-0.17145 0.11898,-0.0339 0.25892,-0.0979 0.31098,-0.1422 0.4767,-0.40534 0.27337,-1.32569 -0.51066,-2.31146 -0.4539,-0.57068 -1.90118,-1.75726 -3.21183,-2.63327 -0.33723,-0.2254 -0.98378,-0.67179 -1.43677,-0.99197 -0.45299,-0.32018 -1.00483,-0.70995 -1.22631,-0.86615 -0.992,-0.69958 -1.76984,-1.27484 -2.24216,-1.65817 -0.62275,-0.50543 -0.76076,-0.60009 -1.79152,-1.22875 -1.72312,-1.05094 -2.74261,-1.59747 -3.88017,-2.080089 -1.09981,-0.466614 -1.5514,-0.617354 -3.55119,-1.185392 -1.05386,-0.29935 -2.35298,-0.691686 -2.88694,-0.871861 -1.62833,-0.549453 -2.62541,-0.765436 -4.35046,-0.94238 -1.35182,-0.13866 -1.4613,-0.15589 -3.44172,-0.541666 -1.7828,-0.347278 -2.64057,-0.529147 -3.11687,-0.660848 -0.15457,-0.04274 -0.62646,-0.155738 -1.04864,-0.251104 -0.42219,-0.09537 -1.14648,-0.304191 -1.60954,-0.464052 -0.46305,-0.159859 -1.37076,-0.470521 -2.01713,-0.690359 -0.64637,-0.219839 -1.85352,-0.679681 -2.68256,-1.021874 -0.82903,-0.34219 -1.9787,-0.794662 -2.55481,-1.005491 -1.23298,-0.451211 -1.58444,-0.610342 -2.91249,-1.318688 -1.14129,-0.608736 -1.59235,-0.815131 -3.29571,-1.508043 -1.69207,-0.688323 -2.88374,-1.210201 -4.85204,-2.124903 -0.92624,-0.430439 -1.6946,-0.772087 -1.70746,-0.759219 -0.0305,0.03054 -0.19244,-0.08277 1.60316,1.121964 0.8712,0.584508 2.06685,1.423712 2.65701,1.864896 1.26458,0.945354 1.65964,1.212149 2.98913,2.01864 1.73637,1.05331 4.77295,2.983504 5.51788,3.507422 0.6294,0.442666 1.52478,1.031741 3.09185,2.034129 1.96104,1.2544 2.30252,1.484095 2.78793,1.875266 0.4151,0.334507 1.45428,1.341947 2.15262,2.086872 0.18442,0.19672 0.44736,0.44561 0.58432,0.5531 0.79803,0.62633 1.46472,1.33446 2.29347,2.43603 0.222,0.29508 0.54333,0.70082 0.71406,0.90164 0.57879,0.6808 2.08638,2.85378 2.6238,3.78185 0.6046,1.04407 1.29084,2.43049 1.69046,3.41527 0.0228,0.0562 0.0653,0.15967 0.0944,0.22993 0.0291,0.0703 0.11498,0.2887 0.19078,0.48542 0.0758,0.19672 0.1585,0.3976 0.1838,0.4464 0.0253,0.0488 0.046,0.13366 0.046,0.18859 0,0.0549 0.0203,0.11238 0.045,0.12768 0.0247,0.0153 0.0568,0.0799 0.0712,0.14353 0.0144,0.0636 0.0883,0.31116 0.16415,0.55004 0.3988,1.25573 0.68291,2.53318 0.78981,3.55119 0.0295,0.28103 0.0639,0.77539 0.0764,1.09857 0.0245,0.63276 0.23977,1.85976 0.37157,2.11752 0.31999,0.62579 1.07431,1.80196 1.72234,2.68553 0.63095,0.86029 0.93281,1.21501 1.68916,1.98496 1.30688,1.3304 2.55607,2.324 3.53754,2.81376 0.49437,0.24668 1.51173,0.60241 1.89456,0.66245 0.28345,0.0444 0.70249,-0.0242 1.34562,-0.2204 0.33033,-0.10077 0.62773,-0.0513 0.81449,0.13543 0.0825,0.0825 0.14997,0.20002 0.14987,0.2611 -5.8e-4,0.31009 -0.57738,0.90749 -1.13521,1.17565 -0.53095,0.25524 -0.90738,0.36369 -1.72551,0.49713 -3.81507,0.62227 -8.51646,-2.09698 -11.71106,-6.77357 -0.8765,-1.28311 -2.52944,-4.17102 -3.36326,-5.87607 -0.58214,-1.19039 -0.81034,-1.7036 -1.35186,-3.04023 -0.69273,-1.70985 -0.87866,-2.04734 -2.28015,-4.1388 -1.13744,-1.69741 -1.41176,-1.98651 -3.44439,-3.62996 -2.03338,-1.64407 -2.52042,-2.02878 -3.06578,-2.42169 -1.38262,-0.99613 -2.58163,-1.91759 -3.20636,-2.46416 -0.37233,-0.32574 -0.94482,-0.7859 -1.27221,-1.02259 -0.3274,-0.23668 -1.31859,-1.02281 -2.20266,-1.746937 -0.88407,-0.724135 -1.81186,-1.465613 -2.06175,-1.647728 -0.6382,-0.46511 -2.19639,-1.440541 -3.14967,-1.971715 -0.12064,-0.06722 0.0114,0.133693 0.39023,0.593817 0.85077,1.033304 1.49003,2.004749 2.04249,3.103834 0.87281,1.736409 1.34061,2.918989 2.48277,6.276339 0.21989,0.64637 0.46305,1.35917 0.54036,1.58399 0.0773,0.22482 0.28926,0.74217 0.47102,1.14966 0.68431,1.53423 0.89665,2.08042 1.39408,3.58598 0.17217,0.5211 0.49758,1.32393 0.56477,1.39336 0.0258,0.0267 0.047,0.10954 0.047,0.18411 0,0.0746 0.0534,0.28276 0.11865,0.46267 0.30231,0.83347 0.74081,3.19752 0.82827,4.4654 0.0495,0.71787 0.34985,1.8522 0.64938,2.45262 0.20153,0.40397 1.96111,2.7217 2.47995,3.2666 0.16243,0.17057 0.70856,0.75847 1.21363,1.30643 0.50508,0.54796 1.36694,1.4562 1.91525,2.0183 1.99848,2.04876 2.50729,2.75089 3.09499,4.27098 0.41261,1.06721 0.55082,1.83714 0.54955,3.06142 -9.7e-4,0.90944 -0.0131,1.04542 -0.13965,1.55844 -0.39868,1.61657 -1.22582,2.75947 -2.89229,3.99642 -1.18709,0.88112 -3.15475,1.71475 -4.21544,1.78592 -0.25293,0.017 -0.48583,0.0513 -0.51757,0.0762 -0.10637,0.0836 -0.56688,0.10129 -1.22807,0.0472 -1.96493,-0.16085 -2.54907,-0.24914 -3.39098,-0.51254 -0.85312,-0.26691 -2.06353,-0.92491 -3.06676,-1.66716 -0.78743,-0.58259 -1.15665,-0.91856 -1.49261,-1.35823 -0.67682,-0.88574 -0.89243,-1.43856 -0.94082,-2.41226 -0.0341,-0.68535 0.0177,-0.96313 0.1972,-1.05922 0.1464,-0.0784 0.18173,-0.0211 0.26926,0.43639 0.0877,0.45862 0.27323,0.88477 0.61512,1.41327 0.82522,1.27567 2.2896,2.11558 4.3047,2.46902 1.11838,0.19616 1.65641,0.21434 2.43455,0.0823 0.36221,-0.0615 0.77609,-0.16539 0.91973,-0.23092 0.14364,-0.0655 0.42212,-0.18358 0.61884,-0.26235 0.2926,-0.11716 0.43296,-0.21793 0.77146,-0.55386 0.24934,-0.24745 0.48637,-0.54264 0.59643,-0.74277 0.2574,-0.46807 0.63748,-1.63322 0.67505,-2.0694 0.0375,-0.43572 -0.0491,-1.43205 -0.15738,-1.80946 -0.15501,-0.54043 -0.84623,-1.78579 -1.41662,-2.55232 -0.46207,-0.62096 -1.60621,-1.87621 -2.04801,-2.24691 -0.22752,-0.19091 -0.66661,-0.54086 -0.97574,-0.77768 -0.30913,-0.23681 -0.732,-0.58769 -0.93972,-0.77973 -0.37694,-0.34851 -1.06348,-0.87983 -2.12606,-1.64538 -1.02923,-0.74153 -1.72782,-1.56267 -2.75731,-3.24098 -0.65856,-1.07363 -1.52383,-3.15293 -1.93603,-4.6524 -0.4692,-1.70688 -0.54835,-2.11163 -0.57952,-2.96358 -0.0297,-0.81319 0.0436,-2.2279 0.15904,-3.06578 0.0406,-0.29508 0.0883,-0.66297 0.10599,-0.81754 0.0177,-0.15457 0.0528,-0.41899 0.0781,-0.58761 0.19742,-1.31414 0.31922,-2.84033 0.27934,-3.50009 -0.0772,-1.27755 -0.31448,-2.67789 -0.65793,-3.88332 -0.47353,-1.662 -1.58613,-4.950016 -2.10072,-6.208191 -0.21838,-0.533955 -0.42198,-1.03406 -0.45242,-1.111344 -0.08,-0.203025 -0.14889,-0.17259 -0.11568,0.0511 0.27681,1.8644 0.36265,3.579896 0.23632,4.722345 -0.1103,0.99736 -0.38837,2.4228 -0.6572,3.36887 -0.53249,1.87393 -0.71273,2.47865 -1.00361,3.36713 -0.17942,0.54801 -0.43001,1.36427 -0.55687,1.81392 -0.26919,0.95413 -0.41666,1.39054 -0.84423,2.49831 -0.38662,1.00164 -0.65852,1.57062 -1.1136,2.33028 -0.19361,0.32319 -0.49624,0.83034 -0.67252,1.12701 -0.61544,1.03578 -1.52952,2.16242 -2.35162,2.89847 -0.24175,0.21644 -0.71547,0.64872 -1.0527,0.96062 -0.33724,0.3119 -0.92357,0.81648 -1.30296,1.12128 -0.37939,0.30481 -1.0347,0.83338 -1.45624,1.17461 -0.81721,0.66151 -1.13891,0.88435 -2.0694,1.43347 -0.89925,0.53068 -2.90827,1.8649 -3.57142,2.37182 -0.78864,0.60287 -2.28193,1.90765 -3.06264,2.67603 -1.40675,1.38452 -2.07235,2.31145 -3.014521,4.19809 -0.736583,1.47495 -1.224536,2.95218 -1.488323,4.50575 -0.350868,2.06644 -0.196699,3.95056 0.554848,6.78087 0.124309,0.46815 0.134746,0.78962 0.03499,1.07762 -0.101011,0.29161 -0.223415,0.29042 -0.483193,-0.005 z M 64.255796,48.681652 c 0.02268,-0.181492 0.01346,-0.319133 -0.0265,-0.395996 -0.159824,-0.307367 -1.244918,-1.335443 -1.818482,-1.72293 -0.370809,-0.25051 -0.504801,-0.311532 -0.468811,-0.213505 0.02688,0.07323 2.210433,2.610526 2.246606,2.610573 0.01785,2.3e-5 0.04808,-0.125141 0.06719,-0.278142 z"
       id="path3"
       inkscape:label="phoenix"
       transform="translate(0,73.32046)" /></g></svg>
